<svg width="20" height="20" viewBox="0 0 20 20" fill="none" xmlns="http://www.w3.org/2000/svg">
<mask id="mask0_136_344" style="mask-type:alpha" maskUnits="userSpaceOnUse" x="0" y="0" width="20" height="20">
<rect width="20" height="20" fill="#D9D9D9"/>
</mask>
<g mask="url(#mask0_136_344)">
<path d="M4.5 17C4.0875 17 3.73437 16.8531 3.44062 16.5594C3.14687 16.2656 3 15.9125 3 15.5V4.5C3 4.0875 3.14687 3.73438 3.44062 3.44063C3.73437 3.14688 4.0875 3 4.5 3H8.0625C8.17361 2.56944 8.40625 2.21181 8.76042 1.92708C9.11458 1.64236 9.52778 1.5 10 1.5C10.4722 1.5 10.8854 1.64236 11.2396 1.92708C11.5938 2.21181 11.8264 2.56944 11.9375 3H15.5C15.9125 3 16.2656 3.14688 16.5594 3.44063C16.8531 3.73438 17 4.0875 17 4.5V15.5C17 15.9125 16.8531 16.2656 16.5594 16.5594C16.2656 16.8531 15.9125 17 15.5 17H4.5ZM4.5 15.5H15.5V4.5H14V7H6V4.5H4.5V15.5ZM9.99563 4.5C10.2069 4.5 10.3854 4.42854 10.5312 4.28563C10.6771 4.14271 10.75 3.96563 10.75 3.75438C10.75 3.54313 10.6785 3.36458 10.5356 3.21875C10.3927 3.07292 10.2156 3 10.0044 3C9.79312 3 9.61458 3.07146 9.46875 3.21437C9.32292 3.35729 9.25 3.53437 9.25 3.74562C9.25 3.95687 9.32146 4.13542 9.46438 4.28125C9.60729 4.42708 9.78438 4.5 9.99563 4.5Z" fill="#FF0000"/>
</g>
</svg>
