<svg width="20" height="20" viewBox="0 0 20 20" fill="none" xmlns="http://www.w3.org/2000/svg">
<mask id="mask0_238_317" style="mask-type:alpha" maskUnits="userSpaceOnUse" x="0" y="0" width="20" height="20">
<rect width="20" height="20" fill="#D9D9D9"/>
</mask>
<g mask="url(#mask0_238_317)">
<path d="M13.5 18C12.8056 18 12.2153 17.7569 11.7292 17.2708C11.2431 16.7847 11 16.1944 11 15.5C11 15.375 11.0278 15.1736 11.0833 14.8958L6.14583 11.875C5.92361 12.0694 5.67326 12.2222 5.39479 12.3333C5.11646 12.4444 4.81819 12.5 4.5 12.5C3.80556 12.5 3.21528 12.2569 2.72917 11.7708C2.24306 11.2847 2 10.6944 2 10C2 9.30556 2.24306 8.71528 2.72917 8.22917C3.21528 7.74306 3.80556 7.5 4.5 7.5C4.81944 7.5 5.11806 7.55556 5.39583 7.66667C5.67361 7.77778 5.92361 7.93056 6.14583 8.125L11.0833 5.10417C11.0556 5.00694 11.0347 4.91104 11.0208 4.81646C11.0069 4.72188 11 4.61639 11 4.5C11 3.80556 11.2431 3.21528 11.7292 2.72917C12.2153 2.24306 12.8056 2 13.5 2C14.1944 2 14.7847 2.24306 15.2708 2.72917C15.7569 3.21528 16 3.80556 16 4.5C16 5.19444 15.7569 5.78472 15.2708 6.27083C14.7847 6.75694 14.1944 7 13.5 7C13.1806 7 12.8819 6.94444 12.6042 6.83333C12.3264 6.72222 12.0764 6.56944 11.8542 6.375L6.91667 9.39583C6.94444 9.49306 6.96528 9.58896 6.97917 9.68354C6.99306 9.77813 7 9.88361 7 10C7 10.1164 6.99306 10.2219 6.97917 10.3165C6.96528 10.411 6.94444 10.5069 6.91667 10.6042L11.8542 13.625C12.0764 13.4306 12.3267 13.2778 12.6052 13.1667C12.8835 13.0556 13.1818 13 13.5 13C14.1944 13 14.7847 13.2431 15.2708 13.7292C15.7569 14.2153 16 14.8056 16 15.5C16 16.1944 15.7569 16.7847 15.2708 17.2708C14.7847 17.7569 14.1944 18 13.5 18ZM13.5 16.5C13.7833 16.5 14.0208 16.4042 14.2125 16.2125C14.4042 16.0208 14.5 15.7833 14.5 15.5C14.5 15.2167 14.4042 14.9792 14.2125 14.7875C14.0208 14.5958 13.7833 14.5 13.5 14.5C13.2167 14.5 12.9792 14.5958 12.7875 14.7875C12.5958 14.9792 12.5 15.2167 12.5 15.5C12.5 15.7833 12.5958 16.0208 12.7875 16.2125C12.9792 16.4042 13.2167 16.5 13.5 16.5ZM4.5 11C4.78333 11 5.02083 10.9042 5.2125 10.7125C5.40417 10.5208 5.5 10.2833 5.5 10C5.5 9.71667 5.40417 9.47917 5.2125 9.2875C5.02083 9.09583 4.78333 9 4.5 9C4.21667 9 3.97917 9.09583 3.7875 9.2875C3.59583 9.47917 3.5 9.71667 3.5 10C3.5 10.2833 3.59583 10.5208 3.7875 10.7125C3.97917 10.9042 4.21667 11 4.5 11ZM13.5 5.5C13.7833 5.5 14.0208 5.40417 14.2125 5.2125C14.4042 5.02083 14.5 4.78333 14.5 4.5C14.5 4.21667 14.4042 3.97917 14.2125 3.7875C14.0208 3.59583 13.7833 3.5 13.5 3.5C13.2167 3.5 12.9792 3.59583 12.7875 3.7875C12.5958 3.97917 12.5 4.21667 12.5 4.5C12.5 4.78333 12.5958 5.02083 12.7875 5.2125C12.9792 5.40417 13.2167 5.5 13.5 5.5Z" fill="#FF0000"/>
</g>
</svg>
